<svg width="271" height="225" viewBox="0 0 271 225" xmlns="http://www.w3.org/2000/svg"><g fill="none" fill-rule="evenodd"><path d="M253.929 44.847l16.535-5.357-5.665-3.98C232.876 13.393 187.71.69 140.86.69c-48.535 0-94.774 13.47-126.926 36.964L.306 48.214l16.153 5.28v31.838l-13.78 31.3 37.052-24.719c11.483-7.73 15.464-14.158 16.766-17.143 9.033-4.209 18.526-7.653 28.324-10.408-1.377 1.99-2.679 4.133-3.75 6.429-2.374 1.683-4.594 3.75-6.737 5.97-5.436 5.816-8.115 13.622-7.503 22.04.383 4.975 1.914 9.643 4.21 13.24-1.913.765-4.746 1.53-8.726 1.377l-6.43-.153 2.143 6.046c.153.46 4.21 11.403 22.506 12.398.46 13.163 5.972 31.607 27.483 49.669.842 5.969 4.517 23.265 20.21 30.535l6.278 2.908v-.535c5.588 5.357 12.172 8.112 21.205 9.336l9.722 1.301-5.358-8.188c-10.87-16.53 8.803-33.368 9.645-34.056 25.034-20.893 28.708-41.633 28.861-50.97 18.297-.995 22.507-11.709 22.66-12.168l2.297-6.123-6.584.153c-4.44.077-7.502-.765-9.34-1.683 9.953-17.985 1.455-33.444-10.64-42.475-1.302-2.22-2.833-4.285-4.44-6.275 9.645 2.449 18.985 5.586 27.942 9.413l-8.498 3.52 6.967 3.368c13.014 6.275 33.453 18.597 43.788 27.474l5.665 4.898V75.383l-14.468-8.19V44.848z" fill="#A7A8A9" fill-rule="nonzero"/><path d="M250.484 69.26V42.321l12.325-3.98c-30.315-21.045-73.721-34.208-121.95-34.208-49.837 0-94.467 14.081-124.86 36.275l-8.42 6.505 12.325 3.98v35.05l-9.34 21.2 27.254-18.138c14.392-9.72 16-16.76 16-16.76 13.396-6.352 28.018-11.25 43.635-14.464-5.818 4.438-10.105 9.949-12.708 15.918a45.15 45.15 0 0 0-7.043 6.122c-10.411 11.097-6.43 28.01 0 33.062 0 0-4.21 5.28-15.387 4.974 0 0 3.598 10.255 23.042 9.49-.153.46-.382 1.148-.382 1.837-.077 8.724 1.913 29.31 27.253 49.974 0 0 1.378 21.2 17.837 28.776v-6.505c7.043 11.556 13.932 16.148 26.258 17.831-13.244-20.127 10.487-39.949 10.487-39.949 31.54-26.403 27.1-51.964 27.1-51.964 19.445.765 23.196-9.337 23.196-9.337-11.177.306-15.387-4.974-15.387-4.974 14.698-21.429-1.76-36.046-8.115-40.562-3.598-6.275-8.497-11.48-14.086-15.688 17.837 3.29 34.526 8.724 49.607 15.918l-8.727 3.597c13.397 6.429 34.143 18.98 44.554 28.01V77.372l-14.468-8.112z" fill="#003764" fill-rule="nonzero"/><path d="M95.462 19.362c.46-.382 1.225-.995 2.22-1.224 1.149-.306 1.99-.153 2.756.459 1.914 1.377 2.374 4.133 2.833 6.275l.153.842 5.13-1.224-.154-12.628-5.588 2.602c-1.149-.535-2.756-.918-5.206-.306-8.268 1.99-14.928 12.857-14.698 22.96 0 1.53.306 6.964 2.832 10.56 1.608 2.296 6.048 5.205 11.483 3.827 2.756-.689 4.517-1.99 5.742-3.214l5.129.076-.153-12.245-4.21.995-.23.919c-1.149 5.127-2.603 8.418-6.048 9.26-2.986.765-3.981-.995-4.364-7.347-.076-1.53-.153-3.214-.23-4.975-.076-3.443.154-8.494.383-10.56.23-2.297.766-3.598 2.22-5.052zM200.8 42.934l-1.225-.306-.153.918c-.306 1.913-.689 2.908-3.368 4.133-1.76.765-3.904.459-6.124 0l-.23-12.245c4.746 1.148 5.435 4.821 5.435 4.821l1.761.383-.077-14.082-1.76-.383s-.919 6.2-5.436 5.128l.307-12.168c2.373.535 4.516 1.148 6.277 2.755 2.373 2.22 2.45 3.138 2.526 4.209v.076l.077.995 4.21.995-.153-10.025-25.569-5.97 2.833 3.368.076 30.995-2.756 2.066 24.421 5.74 1.301.306.077-.995.383-9.107.076-1.072-1.454-.306-1.455-.23zM217.719 56.403l.153-29.77 2.756-1.684-15.388-5.74 2.756 3.75-.076 31.072-2.833 1.683 26.411 9.95-.153-11.404-4.057-1.53c.076 0-.46 7.117-9.57 3.673zM44.095 55.408c1.225-1.377 2.45-3.138 3.521-5.28.996-1.914 1.99-7.883 1.99-11.174 0-2.678-.994-6.505-2.755-7.04-3.292-.766-9.263 3.06-12.172 4.974l-.077.076-13.167 8.725v.076l2.833.995V88.7l-2.833 4.898 12.631-8.265c3.675-2.45 10.641-7.041 14.24-13.852 1.684-3.291 2.526-6.352 2.526-9.26-.077-6.047-3.445-7.883-6.737-6.812zm-9.799-13.852c1.76-1.224 4.44-2.985 5.053-2.985.918.077 1.378 3.597 1.301 6.582 0 3.674-.536 9.49-1.531 10.944-.613.842-3.215 2.602-4.9 3.673l.077-18.214zm5.665 34.975c-.766 1.071-3.598 2.908-5.742 4.209V64.21c.154-.077.23-.154.383-.23 3.062-2.067 5.359-3.444 6.125-2.679.842.918.918 4.362.918 7.27 0 3.827-.536 6.429-1.684 7.96z" fill="#FFFFFF" fill-rule="nonzero"/><path d="M92.477 49.592c-1.378-.842-2.22-2.066-2.833-3.061-2.22-3.52-2.526-8.801-2.526-10.332-.076-6.276 2.144-13.546 5.665-17.602-4.67 4.286-8.038 11.556-7.962 18.061 0 1.53.307 6.811 3.063 10.255.918.995 2.602 1.914 4.593 2.679zM181.968 16.148l.153 30.689 1.531.306-.153-30.536zM209.757 23.801v31.913l1.608.536V24.413z" fill="#EE7623" fill-rule="nonzero"/><path d="M70.659 21.505l3.215 1.607v23.801c-.153 3.674-.918 5.97-5.129 7.424-4.746 1.76-4.976-.077-5.052-3.597V26.786l2.832-3.75-15.464 5.663 2.91 1.684.076 23.877c.076 2.679.153 6.735 5.435 6.964 2.756.154 7.885-1.683 7.885-1.683.842-.306 5.206-1.99 7.656-4.056 4.516-3.827 4.593-7.883 4.67-10.868 0 0 .076-19.668.076-23.571l3.215-3.98-12.325 4.44z" fill="#FFFFFF" fill-rule="nonzero"/><path d="M57.415 54.26l-.23-25.484-1.53.612.23 25.484s.152 5.358 5.74 4.975c0 0-4.133-.153-4.21-5.587zM75.482 47.143l-.153-24.873 1.53-.612.154 25.102s-.077 5.434-5.665 8.419c0 .076 4.21-2.602 4.134-8.036zM25.952 45.612l.153 41.633 1.607-.995-.229-41.633zM41.11 35.51c2.832-1.071 4.516 2.526 4.593 6.2 0 4.438-1.608 12.244-4.9 15.229 1.99-2.22 2.833-9.49 2.833-13.929 0-3.673-.766-7.882-2.527-7.5zM41.798 58.316c2.833-1.071 4.517 2.22 4.594 5.664 0 4.132-1.608 10.714-4.823 13.622 1.99-2.143 2.832-8.265 2.756-12.398-.077-3.367-.766-7.27-2.527-6.888zM191.078 17.832s7.426 1.99 9.033 6.887c.077 0 .307-6.581-9.033-6.887zM191.231 49.515s7.426 2.373 8.88-1.607c0 0 1.378 7.27-8.88 1.607zM221.317 59.005s7.425 3.444 8.803-.306c.077 0 1.225 7.27-8.803.306z" fill="#EE7623" fill-rule="nonzero"/><path d="M254.924 78.52s-.46 7.041-9.646 1.608l.077-41.404 2.755-1.147-15.387-8.955 2.756 4.363v42.704l-2.756 1.071 26.411 15.536-.153-11.403-4.057-2.373z" fill="#FFFFFF" fill-rule="nonzero"/><path fill="#EE7623" fill-rule="nonzero" d="M237.163 34.133l.23 43.393 1.608.841-.23-43.239zM246.886 82.27s8.42 4.822 10.028.766c0-.077 1.608 9.107-10.028-.766z"/><path d="M111.003 105.153l-.153-.076"/><path d="M151.5 146.71c-.383-2.373-1.914-4.133-5.742-3.062-2.45.689-3.598 1.53-4.21 1.99-.077.153-.23.306-.383.459-.153-.153-.306-.306-.383-.46-.536-.458-1.76-1.3-4.21-1.989-3.751-1.071-5.359.689-5.742 3.061 0 0-1.378-6.352 4.21-5.51 3.446.536 5.206 1.454 6.125 2.066.842-.612 2.603-1.53 6.124-2.066 5.589-.842 4.21 5.51 4.21 5.51z" fill="#FFFFFF"/><path d="M173.777 68.648c-.077-.077-.153-.153-.077-.23 0-.076.077-.153.153-.153 1.838-.612 3.752-.995 5.742-.995 2.22 0 4.057.383 5.052.69-15.463-17.909-41.339-18.674-44.86-18.674l3.521 4.745c.077.076.077.153 0 .23-.076.076-.153.152-.23.076-.076 0-3.98-.766-9.645-.766-10.64 0-25.416 2.526-35.597 14.312.995-.23 2.756-.69 5.052-.69 1.99 0 3.98.307 5.742.996.076 0 .153.076.153.153 0 .076 0 .153-.077.23-.153.076-16.612 9.26-16.076 19.438.306 5.357 5.206 10.102 14.622 14.082.076 0 .153.076.153.153 0 .076.46 5.587-3.062 9.413-2.22 2.45-5.589 3.674-9.876 3.674-11.33 0-15.157 5.05-16.153 6.658.69-.23 2.067-.612 4.134-.612 3.751 0 8.115 1.071 13.014 3.29.077 0 .077.077.154.153v.153c-.077.077-1.378 2.296-5.053 2.373.383 2.832 4.593 29.235 19.062 31.148.383-1.225 2.909-8.112 10.335-12.398.076-.077.23 0 .306.076a.233.233 0 0 1 0 .307c-.077.153-9.952 13.086-.383 24.719.077.077.077.153.077.23-.077.153-4.287 13.392 6.354 22.576-.23-1.684-.69-6.505 1.454-10.79 0-.077.153-.154.23-.154.076 0 .153.077.23.153 0 .153 3.52 13.317 12.937 20.817-1.684-3.597-7.655-17.373-2.756-27.475 2.603-5.357 7.809-8.8 15.464-10.408a71.075 71.075 0 0 0-14.392-1.454c-10.335 0-18.373 1.99-18.45 1.99h-.153c-.076 0-.076-.077-.076-.153-1.99-10.485 4.9-14.77 4.9-14.77.076 0 .152-.077.229 0 3.598 1.377 9.799 3.06 12.172 3.52.765.153 1.454.23 2.067.23.765 0 2.526-.154 2.526-1.302 0-1.3-1.301-1.76-1.301-1.837l-7.732-1.148c-.077 0-7.426-.688-7.656-7.193-.076-1.837.536-3.368 1.685-4.592 1.837-1.913 4.593-2.526 6.507-2.526.918 0 1.684.153 2.22.46.306.153.536.306.842.459 1.225.688 2.526 1.454 4.134 1.53 1.607-.076 2.909-.842 4.134-1.53.306-.153.535-.306.842-.46.459-.306 1.301-.459 2.143-.459a10 10 0 0 1 3.598.689c.077 0 2.22.765 3.522 2.908 1.53-2.908 4.21-5.587 7.885-8.036 6.2-4.132 7.655-7.193 7.732-9.107a3.847 3.847 0 0 0-1.072-2.908c-2.45 3.291-5.435 4.056-7.579 4.056-1.455 0-2.603-.382-2.986-.459-3.368 2.985-7.272 9.796-7.349 9.873-.076.076-.153.153-.23.076-.076 0-.153-.153-.153-.23.077-3.75 2.603-11.862 2.986-12.933l-3.751-4.515c-.077-.077-.077-.154 0-.307.077-.076.153-.076.23-.076 1.071.383 2.143.612 3.291.612 8.88 0 17.148-12.321 18.067-13.699 0-.076.077-.076.153-.076 1.684-.46 2.756-.919 2.756-.919 9.416-3.98 14.392-8.724 14.622-14.081.153-9.873-16.306-19.057-16.46-19.133z" fill="#EE7623" fill-rule="nonzero"/><path d="M125.089 162.474l.23-1.836c2.45-.536 6.124-.995 7.731-.995-1.378-.536-5.205-.842-7.196-1.072.383-.765 1.072-1.53 2.297-2.142 8.65 2.525 17.99 3.826 26.717.306.69.612 1.301 1.3 1.76 2.066-1.99.23-4.746.536-5.817.918 1.454 0 4.44.383 6.813.842.306.689.46 1.378.536 1.837-13.627-1.607-21.052-1.607-33.071.076zM130.83 146.71s-1.378-6.353 4.21-5.511c3.446.536 5.206 1.454 6.125 2.066.842-.612 2.603-1.53 6.124-2.066 5.665-.842 4.21 5.51 4.21 5.51-.382-2.372-1.913-4.132-5.74-3.061-2.45.689-3.675 1.53-4.211 1.99-.077.153-.23.306-.383.459-.153-.153-.306-.306-.383-.46-.536-.458-1.76-1.3-4.21-1.989-3.828-.995-5.359.765-5.742 3.061z" fill="#FFFFFF"/><path d="M131.672 116.327c-.076-.077-.153-.077-.23-.077a9.31 9.31 0 0 1-3.52.689c-9.034 0-17.302-12.628-17.378-12.78-.077-.077-.154-.154-.23-.077-.077 0-.153.153-.153.23.383 8.188-7.12 12.32-7.196 12.397-.077.077-.153.153-.077.306.077.077.153.153.306.077 0 0 1.072-.536 2.603-.536 1.76 0 4.364.689 6.737 4.056 2.45 3.52 5.588 4.21 7.732 4.21 1.454 0 2.603-.383 2.985-.46 4.287 3.98 7.35 11.25 7.426 11.327 0 .076.153.153.23.153h.076c.077 0 .153-.153.153-.23-.153-7.04-2.679-13.47-3.062-14.464l3.751-4.515c-.076-.153-.076-.23-.153-.306zM103.347 122.143c-2.296 16.607 12.479 7.5 9.646 24.796l-2.603-3.98c-3.215-4.209-18.372-9.49-8.803-19.209l1.76-1.607z" fill="#003764" fill-rule="nonzero"/><path d="M79.54 95.357c.229 5.434 2.985 10.179 7.502 13.776.535.382 1.377.688 2.373.841 2.603.383 5.588-.688 6.66-2.295.689-1.072.23-2.22-.919-2.909-6.277-3.673-10.488-9.413-10.717-15.994-.077-2.832.536-5.587 1.76-8.19-4.363 4.133-6.89 9.26-6.66 14.771zM118.735 120.23a2.385 2.385 0 0 1-2.373-2.373c0-.765.382-1.454.995-1.913a42.092 42.092 0 0 1-3.751-3.52c-.153.688-.23 1.454-.23 2.219 0 4.133 2.603 7.423 5.895 7.423 1.76 0 3.368-.995 4.44-2.602a27.916 27.916 0 0 1-2.68-1.071c-.23.995-1.148 1.837-2.296 1.837zM168.724 112.423a42.092 42.092 0 0 1-3.75 3.52c.612.46.994 1.149.994 1.914a2.385 2.385 0 0 1-2.373 2.373c-1.148 0-2.067-.766-2.296-1.837-.843.459-1.761.842-2.68 1.071 1.072 1.607 2.68 2.602 4.44 2.602 3.216 0 5.895-3.29 5.895-7.423 0-.765-.077-1.53-.23-2.22zM202.255 95.357c-.23 5.434-2.986 10.179-7.502 13.776-.536.382-1.378.688-2.374.841-2.602.383-5.588-.688-6.66-2.295-.689-1.072-.23-2.22.919-2.909 6.277-3.673 10.488-9.413 10.717-15.994.077-2.832-.536-5.587-1.76-8.19 4.363 4.133 6.89 9.26 6.66 14.771zM167.959 11.25l-.23 22.653-11.024-23.495-11.33-.765.154 2.678v33.597l8.88.766-3.215-2.985-.154-24.337 13.55 28.087 9.034.689.076-33.674 3.062-2.525z" fill="#FFFFFF" fill-rule="nonzero"/><path fill="#EE7623" fill-rule="nonzero" d="M169.949 14.311L170.026 45l1.531.077V14.464zM146.906 12.474l.307 31.072 1.607.076-.306-30.994zM151.27 13.929l15.005 30.612-1.302-.077-13.703-27.321z"/><path fill="#FFFFFF" fill-rule="nonzero" d="M140.859 43.393l-12.632-17.602 9.57-12.934 3.215-3.061-1.378.076-11.483.689 2.909 2.449-8.574 12.551.23-11.862 2.909-2.908-14.622.765 1.914 2.755-.077 30.919-2.832 2.908 15.54-.995-2.909-2.526-.077-11.25 7.579 10.944-2.22 2.679 15.847-.995z"/><path fill="#EE7623" fill-rule="nonzero" d="M114.601 14.082l.076 30.612h1.531l-.076-30.689zM123.481 29.005l10.488 14.541-1.378.076-10.794-14.54 11.253-16.148 1.608-.077z"/><path d="M168.035 207.704v.689h-1.378v3.52h-.842v-3.52h-1.378v-.689h3.598zm4.594 4.286l-.154-2.526v-1.148h-.076c-.077.383-.23.842-.383 1.225l-.765 2.372h-.843l-.765-2.449c-.077-.306-.23-.842-.306-1.224h-.077v1.148l-.153 2.525h-.842l.306-4.209h1.225l.766 2.066c.076.307.153.613.306 1.072.076-.383.23-.765.306-1.072l.766-2.066h1.224l.307 4.21h-.842v.076z" fill="#003764" fill-rule="nonzero"/></g></svg>